<svg xmlns="http://www.w3.org/2000/svg" viewBox="125.39500152587891 147 324.1999969482422 269.2200012207031"><rect height="100%" width="100%" x="125.39500152587891" y="147" fill="rgba(48, 29, 65, 1)"/> <svg xmlns="http://www.w3.org/2000/svg" xmlns:xlink="http://www.w3.org/1999/xlink" version="1.1" x="216.27" y="217" viewBox="20.900001525878906 24.114961624145508 155.55584716796875 109.88504028320312" xml:space="preserve" height="81.23670598892582" width="115.00000000000001" preserveAspectRatio="xMinYMin" enable-background="new 0 0 197.4 158.1" style="overflow: visible;"><g id="Layer_1" class="st0" style="display: none;"></g><g id="Letters" class="st0" style="display: none;"></g><linearGradient id="SVGID_2_" gradientUnits="userSpaceOnUse" x1="19.9061" y1="112.5164" x2="121.0524" y2="11.3701" style=""><stop offset="3.073330e-02" style="stop-color: #6B3D91;"></stop><stop offset="0.3219" style="stop-color: #AE278F;"></stop><stop offset="0.6364" style="stop-color: #E70075;"></stop><stop offset="0.6973" style="stop-color: #EC006C;"></stop><stop offset="0.7983" style="stop-color: #F80152;"></stop><stop offset="0.849" style="stop-color: #FF0143;"></stop><stop offset="0.8838" style="stop-color: #FF0B39;"></stop><stop offset="0.9433" style="stop-color: #FF271F;"></stop><stop offset="1" style="stop-color: #FF4700;"></stop></linearGradient><path style="fill: #fc632b; fill-opacity: 1;" d="M51.7,93.8H35.6c-2.8,0-5-2.2-5-5s2.2-5,5-5h16.1c2.8,0,5,2.2,5,5S54.4,93.8,51.7,93.8z"></path><linearGradient id="SVGID_4_" gradientUnits="userSpaceOnUse" x1="-0.6859" y1="91.9245" x2="100.4605" y2="-9.2219" style=""><stop offset="3.073330e-02" style="stop-color: #6B3D91;"></stop><stop offset="0.3219" style="stop-color: #AE278F;"></stop><stop offset="0.6364" style="stop-color: #E70075;"></stop><stop offset="0.6973" style="stop-color: #EC006C;"></stop><stop offset="0.7983" style="stop-color: #F80152;"></stop><stop offset="0.849" style="stop-color: #FF0143;"></stop><stop offset="0.8838" style="stop-color: #FF0B39;"></stop><stop offset="0.9433" style="stop-color: #FF271F;"></stop><stop offset="1" style="stop-color: #FF4700;"></stop></linearGradient><path style="fill: url(#SVGID_4_);" d="M62,34.2c-0.3,0-0.6,0-1-0.1c-0.3-0.1-0.6-0.2-0.9-0.3c-0.3-0.1-0.6-0.3-0.9-0.5     c-0.3-0.2-0.5-0.4-0.8-0.6c-0.9-0.9-1.5-2.2-1.5-3.5c0-0.3,0-0.7,0.1-1c0.1-0.3,0.2-0.6,0.3-0.9c0.1-0.3,0.3-0.6,0.5-0.9     c0.2-0.3,0.4-0.5,0.6-0.8c0.2-0.2,0.5-0.4,0.8-0.6c0.3-0.2,0.6-0.3,0.9-0.5s0.6-0.2,0.9-0.3c1.6-0.3,3.4,0.2,4.5,1.4     c0.2,0.2,0.4,0.5,0.6,0.8s0.3,0.6,0.5,0.9c0.1,0.3,0.2,0.6,0.3,0.9c0.1,0.3,0.1,0.6,0.1,1c0,1.3-0.5,2.6-1.5,3.5     C64.6,33.7,63.3,34.2,62,34.2z"></path><linearGradient id="SVGID_5_" gradientUnits="userSpaceOnUse" x1="1.1621" y1="93.7724" x2="102.3084" y2="-7.3739" style=""><stop offset="3.073330e-02" style="stop-color: #6B3D91;"></stop><stop offset="0.3219" style="stop-color: #AE278F;"></stop><stop offset="0.6364" style="stop-color: #E70075;"></stop><stop offset="0.6973" style="stop-color: #EC006C;"></stop><stop offset="0.7983" style="stop-color: #F80152;"></stop><stop offset="0.849" style="stop-color: #FF0143;"></stop><stop offset="0.8838" style="stop-color: #FF0B39;"></stop><stop offset="0.9433" style="stop-color: #FF271F;"></stop><stop offset="1" style="stop-color: #FF4700;"></stop></linearGradient><path class="st33" d="M26,73.9c-0.3,0-0.7,0-1-0.1c-0.3-0.1-0.6-0.2-0.9-0.3c-0.3-0.1-0.6-0.3-0.9-0.5c-0.3-0.2-0.5-0.4-0.8-0.6     c-0.2-0.2-0.4-0.5-0.6-0.8c-0.2-0.3-0.3-0.6-0.5-0.9c-0.1-0.3-0.2-0.6-0.3-0.9c-0.1-0.3-0.1-0.6-0.1-1c0-0.3,0-0.6,0.1-1     c0.1-0.3,0.2-0.6,0.3-0.9c0.1-0.3,0.3-0.6,0.5-0.9c0.2-0.3,0.4-0.5,0.6-0.8c0.9-0.9,2.2-1.5,3.5-1.5c1.3,0,2.6,0.5,3.5,1.5     c0.2,0.2,0.4,0.5,0.6,0.8c0.2,0.3,0.3,0.6,0.5,0.9c0.1,0.3,0.2,0.6,0.3,0.9c0.1,0.3,0.1,0.7,0.1,1c0,0.3,0,0.7-0.1,1     c-0.1,0.3-0.2,0.6-0.3,0.9c-0.1,0.3-0.3,0.6-0.5,0.9c-0.2,0.3-0.4,0.5-0.6,0.8c-0.2,0.2-0.5,0.4-0.8,0.6     c-0.3,0.2-0.6,0.3-0.9,0.5c-0.3,0.1-0.6,0.2-0.9,0.3C26.7,73.9,26.4,73.9,26,73.9z" style="fill: #fc632b; fill-opacity: 1;"></path><linearGradient id="SVGID_6_" gradientUnits="userSpaceOnUse" x1="11.7096" y1="104.3199" x2="112.8559" y2="3.1736" style=""><stop offset="3.073330e-02" style="stop-color: #6B3D91;"></stop><stop offset="0.3219" style="stop-color: #AE278F;"></stop><stop offset="0.6364" style="stop-color: #E70075;"></stop><stop offset="0.6973" style="stop-color: #EC006C;"></stop><stop offset="0.7983" style="stop-color: #F80152;"></stop><stop offset="0.849" style="stop-color: #FF0143;"></stop><stop offset="0.8838" style="stop-color: #FF0B39;"></stop><stop offset="0.9433" style="stop-color: #FF271F;"></stop><stop offset="1" style="stop-color: #FF4700;"></stop></linearGradient><path class="st34" d="M50.6,73.9h-7c-2.8,0-5-2.2-5-5s2.2-5,5-5h7c2.8,0,5,2.2,5,5S53.4,73.9,50.6,73.9z" style="fill: #fc632b; fill-opacity: 1;"></path><linearGradient id="SVGID_7_" gradientUnits="userSpaceOnUse" x1="52.9967" y1="145.6071" x2="154.1431" y2="44.4607" style=""><stop offset="3.073330e-02" style="stop-color: #6B3D91;"></stop><stop offset="0.3219" style="stop-color: #AE278F;"></stop><stop offset="0.6364" style="stop-color: #E70075;"></stop><stop offset="0.6973" style="stop-color: #EC006C;"></stop><stop offset="0.7983" style="stop-color: #F80152;"></stop><stop offset="0.849" style="stop-color: #FF0143;"></stop><stop offset="0.8838" style="stop-color: #FF0B39;"></stop><stop offset="0.9433" style="stop-color: #FF271F;"></stop><stop offset="1" style="stop-color: #FF4700;"></stop></linearGradient><path class="st35" d="M173.5,28c-2.3-2.5-5.6-3.8-9.9-3.8c-4.2,0-7.6,1.3-10.3,3.8c-2.7,2.5-4.2,5.9-4.6,10.2L146.4,67h-44    l2.3-28.9c0.4-4.2-0.5-7.5-2.8-10c-2.3-2.5-5.6-3.7-9.9-3.8c0,0,0,0,0,0l-10.8,0c-2.6,0-4.9,1.9-5.2,4.5c-0.3,3,2.1,5.5,5,5.5h3.8    c2.5,0,4.8,1.9,4.9,4.4c0,0.2,0,0.4,0,0.6c-0.2,2.7-2.6,4.7-5.2,4.7l-7.7,0l-16.6,0c-2.6,0-4.9,1.9-5.2,4.5c-0.3,3,2.1,5.5,5,5.5    h16h2c2.6,0,4.9,1.9,5.2,4.5c0.3,3-2.1,5.5-5,5.5h-3h-6.6c-2.6,0-4.9,1.9-5.2,4.4c-0.3,2.9,1.8,5.4,4.6,5.6l14.9,0    c2.6,0,4.9,1.9,5.2,4.5c0.3,3-2.1,5.5-5,5.5h-9.6l0,0l-3.4,0c-2.6,0-4.9,1.9-5.2,4.5c-0.3,3,2.1,5.5,5,5.5h2h0.8l0,0.1    c2.4,0.4,4.2,2.4,4.2,4.9c0,2.7-2.2,5-5,5l0,0h0l-14.6,0c-2.6,0-4.9,1.9-5.2,4.5c-0.3,3,2.1,5.5,5,5.5h14.1l6.4,0    c2.6,0,4.9,1.9,5.2,4.5c0.3,3-2.1,5.5-5,5.5h-7c0,0,0,0,0,0c-2.7,0.3-4.9,2.7-4.5,5.6c0.3,2.5,2.6,4.4,5.2,4.4h12c0,0,0,0,0,0    c0,0,0,0,0,0c4.2,0,7.6-1.3,10.3-3.8c2.7-2.6,4.2-6,4.6-10.3l2.5-30.5h44l-2.5,30.6c-0.4,4.3,0.6,7.7,2.9,10.2    c2.3,2.5,5.6,3.8,9.8,3.8c4.2,0,7.6-1.3,10.3-3.8c2.7-2.6,4.2-6,4.6-10.3l6.4-81.8C176.7,33.8,175.8,30.5,173.5,28z" style="fill: #fc632b; fill-opacity: 1;"></path></svg> <svg y="328" viewBox="1.5 6.460000038146973 184.1999969482422 18.220001220703125" x="195.3950015258789" height="18.220001220703125" width="184.1999969482422" style="overflow: visible;"><g fill="#FFFFFF" fill-opacity="1" style=""><path d="M17.40 6.46L17.40 24.68L13.15 24.68L13.15 16.98L5.75 16.98L5.75 24.68L1.50 24.68L1.50 6.46L5.75 6.46L5.75 14.07L13.15 14.07L13.15 6.46L17.40 6.46ZM39.08 6.46L32.48 17.75L32.48 24.68L28.25 24.68L28.25 17.75L21.65 6.46L25.38 6.46Q25.93 6.46 26.25 6.72Q26.58 6.98 26.78 7.38L26.78 7.38L29.35 12.68Q29.66 13.31 29.93 13.85Q30.19 14.39 30.39 14.91L30.39 14.91Q30.58 14.38 30.84 13.84Q31.10 13.30 31.40 12.68L31.40 12.68L33.95 7.38Q34.03 7.21 34.16 7.05Q34.29 6.89 34.46 6.76Q34.63 6.63 34.84 6.54Q35.06 6.46 35.33 6.46L35.33 6.46L39.08 6.46ZM49.75 18.59L47.55 18.59L47.55 24.68L43.33 24.68L43.33 6.46L49.75 6.46Q51.68 6.46 53.06 6.92Q54.44 7.38 55.33 8.18Q56.23 8.97 56.65 10.06Q57.08 11.15 57.08 12.41L57.08 12.41Q57.08 13.78 56.64 14.91Q56.20 16.05 55.30 16.86Q54.40 17.68 53.02 18.13Q51.64 18.59 49.75 18.59L49.75 18.59ZM47.55 9.63L47.55 15.40L49.75 15.40Q51.40 15.40 52.13 14.61Q52.85 13.82 52.85 12.41L52.85 12.41Q52.85 11.79 52.66 11.28Q52.48 10.76 52.09 10.39Q51.71 10.03 51.13 9.82Q50.55 9.63 49.75 9.63L49.75 9.63L47.55 9.63ZM62.28 6.46L74 6.46L74 9.71L66.53 9.71L66.53 13.96L72.25 13.96L72.25 17.09L66.53 17.09L66.53 21.43L74 21.43L74 24.68L62.28 24.68L62.28 6.46ZM84.70 17.94L83.63 17.94L83.63 24.68L79.40 24.68L79.40 6.46L85.33 6.46Q87.30 6.46 88.69 6.87Q90.09 7.27 90.97 8Q91.85 8.72 92.25 9.71Q92.65 10.70 92.65 11.86L92.65 11.86Q92.65 12.75 92.41 13.54Q92.18 14.32 91.71 14.99Q91.24 15.66 90.56 16.19Q89.88 16.71 88.99 17.05L88.99 17.05Q89.41 17.26 89.78 17.57Q90.15 17.89 90.43 18.34L90.43 18.34L94.30 24.68L90.48 24.68Q89.41 24.68 88.95 23.88L88.95 23.88L85.93 18.59Q85.73 18.24 85.46 18.09Q85.19 17.94 84.70 17.94L84.70 17.94ZM83.63 9.63L83.63 15.03L85.33 15.03Q86.19 15.03 86.79 14.81Q87.40 14.59 87.79 14.20Q88.18 13.81 88.35 13.29Q88.53 12.78 88.53 12.18L88.53 12.18Q88.53 10.97 87.74 10.30Q86.96 9.63 85.33 9.63L85.33 9.63L83.63 9.63ZM113.28 18.59L111.08 18.59L111.08 24.68L106.85 24.68L106.85 6.46L113.28 6.46Q115.20 6.46 116.58 6.92Q117.96 7.38 118.86 8.18Q119.75 8.97 120.18 10.06Q120.60 11.15 120.60 12.41L120.60 12.41Q120.60 13.78 120.16 14.91Q119.73 16.05 118.83 16.86Q117.93 17.68 116.54 18.13Q115.16 18.59 113.28 18.59L113.28 18.59ZM111.08 9.63L111.08 15.40L113.28 15.40Q114.93 15.40 115.65 14.61Q116.38 13.82 116.38 12.41L116.38 12.41Q116.38 11.79 116.19 11.28Q116.00 10.76 115.62 10.39Q115.24 10.03 114.66 9.82Q114.08 9.63 113.28 9.63L113.28 9.63L111.08 9.63ZM130.43 6.46L130.43 24.68L126.18 24.68L126.18 6.46L130.43 6.46ZM135.43 24.68L141.29 15.31L135.65 6.46L139.88 6.46Q140.29 6.46 140.48 6.57Q140.68 6.68 140.83 6.93L140.83 6.93L144.45 13.06Q144.51 12.90 144.59 12.75Q144.68 12.60 144.78 12.44L144.78 12.44L147.95 6.99Q148.26 6.46 148.80 6.46L148.80 6.46L152.85 6.46L147.14 15.13L152.98 24.68L148.75 24.68Q148.34 24.68 148.08 24.48Q147.83 24.28 147.68 24L147.68 24L144.03 17.63Q143.93 17.90 143.80 18.10L143.80 18.10L140.40 24Q140.25 24.26 140 24.47Q139.75 24.68 139.38 24.68L139.38 24.68L135.43 24.68ZM157.60 6.46L169.33 6.46L169.33 9.71L161.85 9.71L161.85 13.96L167.58 13.96L167.58 17.09L161.85 17.09L161.85 21.43L169.33 21.43L169.33 24.68L157.60 24.68L157.60 6.46ZM178.95 6.46L178.95 21.30L185.70 21.30L185.70 24.68L174.73 24.68L174.73 6.46L178.95 6.46Z" transform="translate(0, 0)"></path></g></svg></svg>